<svg xmlns="http://www.w3.org/2000/svg" width="47" height="48" fill="none"><path fill="url(#a)" d="M31.352 12.389a1.872 1.872 0 002.65 0l2.608-2.608a1.878 1.878 0 000-2.651L30.027.549a1.871 1.871 0 00-2.648 0L24.77 3.157a1.875 1.875 0 000 2.648l6.582 6.584z"/><path fill="url(#b)" d="M15.766 28.267a1.876 1.876 0 002.648 0l2.609-2.61a1.872 1.872 0 000-2.649l-6.583-6.583a1.874 1.874 0 00-2.649 0l-2.608 2.608a1.875 1.875 0 000 2.65l6.583 6.584z"/><path fill="url(#c)" d="M45.648 28.893l-2.647-2.65a1.875 1.875 0 00-2.648 0l-1.161 1.16-11.205-11.207 2.427-2.428-6.733-6.73-2.428 2.427-3.092 3.09-2.374 2.374 6.732 6.733 2.377-2.373 11.203 11.205-1.048 1.05a1.87 1.87 0 000 2.647l2.647 2.648a1.87 1.87 0 002.65 0l5.299-5.297a1.871 1.871 0 00.001-2.649z"/><path fill="url(#d)" d="M26.077 36.943a2.173 2.173 0 00-2.173-2.173H6.936c-1.2 0-2.173.973-2.173 2.172v3.527H0v7.39h30.558v-7.39h-4.481v-3.526z"/><defs><linearGradient id="a" x1="30.69" x2="30.69" y1="0" y2="12.939" gradientUnits="userSpaceOnUse"><stop stop-color="#EF8080"/><stop offset="1" stop-color="#F0145A"/></linearGradient><linearGradient id="b" x1="15.103" x2="15.103" y1="15.877" y2="28.814" gradientUnits="userSpaceOnUse"><stop stop-color="#EF8080"/><stop offset="1" stop-color="#F0145A"/></linearGradient><linearGradient id="c" x1="30.992" x2="30.992" y1="7.037" y2="37.39" gradientUnits="userSpaceOnUse"><stop stop-color="#EF8080"/><stop offset="1" stop-color="#F0145A"/></linearGradient><linearGradient id="d" x1="15.279" x2="15.279" y1="34.77" y2="47.858" gradientUnits="userSpaceOnUse"><stop stop-color="#EF8080"/><stop offset="1" stop-color="#F0145A"/></linearGradient></defs></svg>